<svg width="75" height="88" viewBox="0 0 75 88" fill="none" xmlns="http://www.w3.org/2000/svg">
<g clip-path="url(#clip0_2_1617)">
<path d="M36.1684 3.5963L0 36.0116H72.3369L36.1684 3.5963Z" fill="#E08605"/>
<path d="M65.8469 36.0116H6.50189V81.2569H65.8469V36.0116Z" fill="#FCB924"/>
<path d="M65.835 35.392H36.1685V81.2569H65.835V35.392Z" fill="#E08605"/>
<path d="M68.51 81.2569H3.83875V88.0121H68.51V81.2569Z" fill="#8C382D"/>
<path d="M25.048 43.3257V76.0812H47.3009V43.3257H25.048ZM28.3829 72.7036V57.5044H34.5129V72.7036H28.3829ZM43.9659 72.7036H37.8359V57.5044H43.9659V72.7036ZM43.9659 54.1389H28.3829V46.7155H43.9659V54.1389Z" fill="white"/>
<path d="M43.9659 57.5043H37.8359V72.7036H43.9659V57.5043Z" fill="#71DEFF"/>
<path d="M43.9659 46.7033H28.3829V54.1267H43.9659V46.7033Z" fill="#71DEFF"/>
<path d="M34.513 57.5043H28.3829V72.7036H34.513V57.5043Z" fill="#71DEFF"/>
<path d="M68.5101 81.2569H36.1685V88.0121H68.5101V81.2569Z" fill="#662520"/>
<path d="M70.8494 22.1367L75 23.5825L70.8494 25.0161L69.4218 30.9452L67.9943 25.0161L63.8556 23.5825L67.9943 22.1367L69.4218 16.2076L70.8494 22.1367Z" fill="#0494A3"/>
<path d="M56.8498 5.92904L61.0005 7.37485L56.8498 8.82065L55.4223 14.7497L53.9948 8.82065L49.8561 7.37485L53.9948 5.92904L55.4223 0L56.8498 5.92904Z" fill="#0494A3"/>
<path d="M73.8964 37.3602L66.3628 30.605H63.0158L64.6953 29.0984L58.8412 23.8498H55.3983L57.1137 22.3068L51.2956 17.0946H48.5605L49.928 15.8675L43.762 10.3394H40.8709L42.3105 9.03935L36.2284 3.58415L30.1344 9.03935L31.5859 10.3394H28.6948L22.7567 15.6609L24.3522 17.0946H21.1492L15.3671 22.2703L17.1185 23.8376H13.6157L7.8215 29.0255L9.56095 30.5928H6.07006L0.371887 35.7322L2.18331 37.3602H12.9559L14.5394 35.9509L16.1228 37.3602H27.5432L29.0307 36.0237L30.5182 37.3602H42.0346L43.5221 36.0237L45.0096 37.3602H56.5259L58.0134 36.0237L59.501 37.3602H70.9573L72.4448 36.0237L73.9324 37.3602H73.8964ZM18.834 30.7994L21.4252 28.4788L24.0163 30.7994H18.834ZM26.4156 23.8498L29.0067 21.5292L31.5979 23.8498H26.4156ZM36.2404 14.774L38.8316 17.0946H33.6492L36.2404 14.774ZM33.6492 30.605L36.2404 28.2844L38.8316 30.605H33.6492ZM40.8829 23.8498L43.4741 21.5292L46.0653 23.8498H40.8829ZM48.1166 30.605L50.7078 28.2844L53.299 30.605H48.1166Z" fill="#8C382D"/>
<path d="M43.4981 36.0237L44.9856 37.3602H56.5019L57.9894 36.0237L59.477 37.3602H70.9333L72.4208 36.0237L73.9084 37.3602L66.3748 30.605H63.0278L64.7073 29.0984L58.8532 23.8498H55.4103L57.1257 22.3068L51.3076 17.0946H48.5725L49.94 15.8675L43.774 10.3394H40.8829L42.3225 9.03935L36.2404 3.58415L36.1804 3.6449V14.8347L36.2404 14.774L38.8316 17.0946H36.1684V28.333L36.2284 28.2723L38.8196 30.5928H36.1564V37.3481H41.9986L43.4861 36.0116L43.4981 36.0237ZM50.6958 28.2723L53.2869 30.5928H48.1046L50.6958 28.2723ZM43.4621 21.5171L46.0533 23.8376H40.8709L43.4621 21.5171Z" fill="#662520"/>
<path d="M59.369 42.536L70.8613 46.5332L59.369 50.5304L55.4223 66.9568L51.4755 50.5304L39.9832 46.5332L51.4755 42.536L55.4223 26.1096L59.369 42.536Z" fill="#0494A3"/>
</g>
<defs>
<clipPath id="clip0_2_1617">
<rect width="75" height="88" fill="white"/>
</clipPath>
</defs>
</svg>
